<svg width="727" height="185" viewBox="0 0 727 185" fill="none" xmlns="http://www.w3.org/2000/svg">
<path d="M132.917 14.1766C124.387 4.4543 108.968 0.286133 89.2427 0.286133H31.9943C30.0417 0.285095 28.1528 0.980988 26.6676 2.2486C25.1823 3.51619 24.1982 5.27225 23.8924 7.20078L0.0656902 158.39C-0.0447908 159.092 -0.00190927 159.809 0.191383 160.492C0.384676 161.175 0.723783 161.808 1.18534 162.348C1.6469 162.887 2.21994 163.321 2.86497 163.617C3.51001 163.914 4.21171 164.067 4.92174 164.067H40.2644L49.1408 107.766L48.8657 109.529C49.1656 107.605 50.1431 105.85 51.622 104.583C53.1009 103.315 54.984 102.617 56.9319 102.615H73.7268C106.72 102.615 132.555 89.2135 140.101 50.4466C140.325 49.3001 140.519 48.1842 140.687 47.0937C142.929 32.7651 140.672 23.0122 132.922 14.1817" fill="#4C4445"/>
<path d="M565.589 86.1205C563.428 100.306 552.595 100.306 542.119 100.306H536.157L540.34 73.8199C540.595 72.2199 541.971 71.0428 543.591 71.0428H546.328C553.462 71.0428 560.198 71.0428 563.673 75.1039C565.747 77.5345 566.374 81.1421 565.589 86.1205ZM561.028 49.1065H521.507C520.198 49.1072 518.933 49.5743 517.937 50.4242C516.942 51.274 516.282 52.4508 516.076 53.7434L500.106 155.078C500.033 155.548 500.062 156.028 500.191 156.486C500.321 156.943 500.548 157.367 500.856 157.729C501.165 158.091 501.549 158.381 501.98 158.581C502.412 158.78 502.882 158.884 503.357 158.885H523.637C525.528 158.885 527.138 157.509 527.434 155.644L531.969 126.905C532.386 124.24 534.69 122.268 537.39 122.268H549.895C575.933 122.268 590.954 109.677 594.878 84.7039C596.646 73.7893 594.949 65.2084 589.839 59.2008C584.218 52.5969 574.256 49.1014 561.033 49.1014" fill="#4C4445"/>
<path d="M283.704 86.1206C281.543 100.307 270.71 100.307 260.229 100.307H254.267L258.45 73.82C258.705 72.22 260.081 71.0429 261.701 71.0429H264.438C271.571 71.0429 278.308 71.0429 281.783 75.1041C283.862 77.5347 284.488 81.1423 283.704 86.1206ZM279.143 49.1066H239.622C236.922 49.1066 234.618 51.0735 234.196 53.7436L218.221 155.079C218.147 155.548 218.175 156.029 218.304 156.487C218.433 156.945 218.66 157.369 218.969 157.731C219.278 158.093 219.662 158.383 220.094 158.582C220.526 158.782 220.996 158.885 221.472 158.885H240.346C243.046 158.885 245.345 156.918 245.768 154.248L250.083 126.91C250.501 124.24 252.804 122.273 255.505 122.273H268.01C294.048 122.273 309.069 109.677 312.993 84.7041C314.761 73.7894 313.064 65.2085 307.953 59.2009C302.333 52.5971 292.371 49.1015 279.148 49.1015M370.899 122.503C369.064 133.315 360.488 140.577 349.538 140.577C344.05 140.577 339.653 138.808 336.83 135.466C334.027 132.154 332.978 127.43 333.864 122.177C335.566 111.456 344.29 103.965 355.072 103.965C360.448 103.965 364.804 105.749 367.688 109.122C370.588 112.521 371.729 117.27 370.899 122.503ZM397.273 85.662H378.348C377.562 85.6611 376.8 85.9415 376.202 86.4527C375.604 86.9638 375.209 87.672 375.087 88.4493L374.262 93.7384L372.937 91.8225C368.84 85.876 359.704 83.8837 350.583 83.8837C329.676 83.8837 311.816 99.7308 308.341 121.947C306.532 133.04 309.1 143.634 315.388 151.028C321.161 157.82 329.401 160.648 339.22 160.648C356.076 160.648 365.421 149.825 365.421 149.825L364.575 155.084C364.501 155.554 364.529 156.035 364.659 156.493C364.788 156.951 365.015 157.376 365.325 157.738C365.634 158.1 366.019 158.39 366.452 158.589C366.884 158.788 367.355 158.891 367.831 158.89H384.871C387.571 158.89 389.874 156.928 390.297 154.253L400.529 89.4735C400.603 89.0028 400.574 88.5218 400.443 88.0636C400.313 87.6053 400.086 87.1807 399.776 86.8189C399.466 86.4572 399.081 86.1669 398.648 85.9681C398.215 85.7692 397.744 85.6665 397.268 85.6671" fill="#4C4445"/>
<path d="M652.784 122.503C650.949 133.315 642.374 140.577 631.423 140.577C625.935 140.577 621.538 138.808 618.715 135.466C615.912 132.154 614.863 127.43 615.749 122.177C617.451 111.456 626.17 103.965 636.957 103.965C642.333 103.965 646.689 105.749 649.574 109.122C652.473 112.521 653.614 117.27 652.784 122.503ZM679.158 85.662H660.233C659.447 85.6611 658.686 85.9415 658.087 86.4527C657.489 86.9638 657.094 87.672 656.972 88.4493L656.147 93.7384L654.822 91.8225C650.725 85.876 641.589 83.8837 632.468 83.8837C611.566 83.8837 593.706 99.7308 590.226 121.947C588.417 133.04 590.99 143.634 597.278 151.028C603.051 157.82 611.291 160.648 621.11 160.648C637.971 160.648 647.316 149.825 647.316 149.825L646.47 155.084C646.394 155.553 646.421 156.034 646.549 156.492C646.678 156.951 646.904 157.376 647.213 157.738C647.522 158.1 647.905 158.39 648.338 158.589C648.77 158.788 649.24 158.891 649.716 158.89H666.751C669.451 158.89 671.754 156.928 672.182 154.253L682.414 89.4735C682.488 89.0028 682.459 88.5218 682.329 88.0636C682.199 87.6053 681.971 87.1807 681.661 86.8189C681.351 86.4572 680.966 86.1669 680.533 85.9681C680.1 85.7692 679.63 85.6665 679.153 85.6671" fill="#4C4445"/>
<path d="M498.068 85.667H479.041C477.222 85.667 475.525 86.5689 474.506 88.0771L448.264 126.722L437.141 89.5854C436.801 88.4527 436.106 87.4595 435.158 86.7528C434.21 86.0461 433.059 85.6636 431.877 85.6619H413.181C412.657 85.6621 412.14 85.7874 411.674 86.0273C411.208 86.2672 410.806 86.6148 410.501 87.0413C410.196 87.4677 409.997 87.9608 409.921 88.4794C409.845 88.9981 409.893 89.5275 410.063 90.0236L431.005 151.506L411.306 179.303C410.958 179.796 410.752 180.375 410.711 180.978C410.67 181.58 410.795 182.183 411.072 182.719C411.35 183.255 411.769 183.705 412.285 184.019C412.801 184.333 413.393 184.499 413.997 184.5H433.003C434.797 184.5 436.483 183.618 437.512 182.141L500.769 90.8389C501.112 90.3454 501.314 89.7672 501.352 89.1672C501.39 88.5671 501.263 87.968 500.985 87.4351C500.706 86.9021 500.287 86.4555 499.773 86.1438C499.259 85.8321 498.669 85.6672 498.068 85.667Z" fill="#4C4445"/>
<path d="M701.461 51.8936L685.237 155.083C685.164 155.553 685.193 156.034 685.323 156.492C685.452 156.95 685.68 157.374 685.989 157.736C686.299 158.098 686.683 158.388 687.115 158.587C687.547 158.786 688.017 158.889 688.493 158.89H704.804C707.505 158.89 709.808 156.923 710.231 154.253L726.226 52.9127C726.3 52.4423 726.272 51.9614 726.142 51.5031C726.013 51.0449 725.785 50.6201 725.476 50.2583C725.166 49.8964 724.782 49.606 724.349 49.4071C723.917 49.2082 723.446 49.1056 722.97 49.1063H704.717C703.932 49.1043 703.171 49.3838 702.574 49.8942C701.977 50.4046 701.582 51.1172 701.461 51.8936Z" fill="#4C4445"/>
<path d="M132.917 14.1766C124.387 4.4543 108.968 0.286133 89.2427 0.286133H31.9943C30.0417 0.285095 28.1528 0.980988 26.6676 2.2486C25.1823 3.51619 24.1982 5.27225 23.8924 7.20078L0.0656902 158.39C-0.0447908 159.092 -0.00190927 159.809 0.191383 160.492C0.384676 161.175 0.723783 161.808 1.18534 162.348C1.6469 162.887 2.21994 163.321 2.86497 163.617C3.51001 163.914 4.21171 164.067 4.92174 164.067H40.2644L49.1408 107.766L48.8657 109.529C49.1656 107.605 50.1431 105.85 51.622 104.583C53.1009 103.315 54.984 102.617 56.9319 102.615H73.7268C106.72 102.615 132.555 89.2135 140.101 50.4466C140.325 49.3001 140.519 48.1842 140.687 47.0937C142.929 32.7651 140.672 23.0122 132.922 14.1817" fill="#4C4445"/>
<path d="M58.6746 47.2825C58.9424 45.5974 59.802 44.0629 61.0992 42.9544C62.3963 41.8459 64.0461 41.236 65.7523 41.2341H110.634C115.948 41.2341 120.906 41.5806 125.436 42.3041C127.913 42.7026 130.363 43.2505 132.774 43.9449C135.511 44.7146 138.16 45.77 140.677 47.094C142.929 32.7602 140.667 23.0125 132.917 14.1768C124.382 4.45961 108.968 0.291443 89.2427 0.291443H31.9893C30.0384 0.292831 28.1519 0.989822 26.6688 2.2572C25.1857 3.52458 24.2031 5.27931 23.8976 7.2061L0.060636 158.38C-0.0505928 159.082 -0.0084439 159.799 0.184181 160.482C0.376806 161.166 0.715326 161.799 1.17641 162.339C1.6375 162.88 2.21019 163.313 2.85502 163.611C3.49985 163.908 4.20149 164.062 4.91159 164.062H40.2593L49.1358 107.756L58.6746 47.2825Z" fill="#4C4445"/>
<path d="M140.682 47.0887C140.507 48.2097 140.312 49.3275 140.096 50.4415C132.55 89.2033 106.715 102.61 73.7217 102.61H56.9217C54.9741 102.611 53.0911 103.309 51.6129 104.577C50.1346 105.845 49.1584 107.6 48.8605 109.524L40.2593 164.057L37.8134 179.527C37.7162 180.141 37.7533 180.769 37.9221 181.367C38.091 181.966 38.3876 182.52 38.7916 182.993C39.1956 183.466 39.6972 183.845 40.262 184.106C40.8268 184.366 41.4413 184.5 42.0631 184.5H71.8567C75.3828 184.5 78.379 181.932 78.9344 178.452L79.2249 176.933L84.8401 141.346L85.1968 139.379C85.4638 137.693 86.3239 136.157 87.6223 135.048C88.9207 133.939 90.5722 133.33 92.2796 133.331H96.7382C125.599 133.331 148.198 121.611 154.802 87.695C157.553 73.5294 156.127 61.6925 148.84 53.3816C146.526 50.805 143.762 48.6724 140.682 47.0887Z" fill="#4C4445"/>
<path d="M132.779 43.9448C131.627 43.6034 130.44 43.2977 129.217 43.0276C127.994 42.7576 126.731 42.5181 125.436 42.3143C120.901 41.5754 115.948 41.2289 110.629 41.2289H65.7523C64.0442 41.2268 62.3916 41.836 61.0935 42.9463C59.7954 44.0565 58.9374 45.5946 58.6746 47.2824L49.1358 107.766L48.8606 109.524C49.1585 107.6 50.1346 105.845 51.6129 104.577C53.0912 103.309 54.9741 102.611 56.9217 102.61H73.7217C106.715 102.61 132.55 89.2085 140.096 50.4417C140.32 49.2952 140.509 48.1843 140.682 47.0888C138.689 46.046 136.613 45.17 134.476 44.4697C133.92 44.2863 133.355 44.1181 132.779 43.9448Z" fill="#4C4445"/>
</svg>
