<svg width="797" height="137" viewBox="0 0 797 137" fill="none" xmlns="http://www.w3.org/2000/svg">
<mask id="mask0_122_91" style="mask-type:luminance" maskUnits="userSpaceOnUse" x="0" y="0" width="797" height="137">
<path d="M0 0.81953H796.799V136.022H0V0.81953Z" fill="white"/>
</mask>
<g mask="url(#mask0_122_91)">
<mask id="mask1_122_91" style="mask-type:luminance" maskUnits="userSpaceOnUse" x="0" y="0" width="797" height="137">
<path d="M0 136.022H796.799V0.81953H0V136.022Z" fill="white"/>
</mask>
<g mask="url(#mask1_122_91)">
<path d="M312.463 15.6168C312.463 12.4056 313.739 9.32585 316.01 7.05516C318.28 4.78448 321.36 3.50881 324.572 3.50881C327.783 3.50881 330.862 4.78448 333.133 7.05516C335.404 9.32585 336.679 12.4056 336.679 15.6168C336.562 18.7498 335.236 21.7156 332.978 23.8908C330.72 26.066 327.707 27.2812 324.572 27.2812C321.436 27.2812 318.423 26.066 316.165 23.8908C313.907 21.7156 312.58 18.7498 312.463 15.6168Z" fill="#4C4445"/>
<path d="M503.501 96.3677C503.501 89.6476 508.915 84.2176 515.584 84.2176C518.804 84.2176 521.893 85.4968 524.17 87.7738C526.447 90.0508 527.726 93.1391 527.726 96.3593C527.726 99.5794 526.447 102.668 524.17 104.945C521.893 107.222 518.804 108.501 515.584 108.501C508.923 108.501 503.501 103.063 503.501 96.3593" fill="#4C4445"/>
<path d="M113.753 91.1148C103.331 91.1148 96.0795 82.8348 96.0795 70.9967C96.0795 59.1669 103.331 50.8954 113.761 50.8954C124.241 50.8954 131.569 59.1669 131.569 70.9967C131.569 83.0203 124.402 91.1148 113.753 91.1148ZM113.753 33.2141C91.6951 33.2141 75.6831 49.1079 75.6831 70.9967C75.6831 92.8939 91.7035 108.779 113.753 108.779C135.903 108.779 151.973 92.8939 151.973 71.0051C151.973 49.1079 135.894 33.2141 113.753 33.2141ZM289.014 72.8938C288.247 71.4091 287.276 70.0384 286.131 68.8213L285.456 68.1215L286.165 67.4469C287.177 66.3761 288.213 65.1113 289.208 63.6442L308.686 34.7065H285.043L270.414 57.3457C269.588 58.5599 267.918 59.1669 265.414 59.1669H262.084V16.3674C262.084 7.80923 256.746 6.64565 250.988 6.64565H241.122L241.147 107.666H262.092V77.3626H264.057C266.443 77.3626 268.061 77.6409 268.812 78.9394L280.363 100.744C283.593 106.663 286.805 107.666 292.859 107.666H308.905L296.949 87.9023L289.023 72.8938M390.685 33.0454C380.027 33.0454 373.231 37.7841 369.419 41.7891L368.155 43.0708L367.699 41.3254C366.586 37.0336 362.809 34.6812 357.135 34.6812H347.75L347.809 107.641H368.61V74.0152C368.61 70.7269 369.031 67.8769 369.908 65.2715C372.219 57.3879 378.677 52.489 386.747 52.489C393.239 52.489 395.777 55.9207 395.777 64.7741V96.5533C395.777 104.108 399.276 107.641 406.839 107.641H416.738L416.705 61.2327C416.705 42.8009 407.708 33.0454 390.685 33.0454ZM324.824 34.7065H314.967L315.035 91.1232V107.666H325.549L325.92 107.683L330.828 107.666H335.701V107.641H335.735L335.777 45.7942C335.777 38.3321 332.21 34.7149 324.833 34.7149M195.447 91.1148C185.026 91.1148 177.766 82.8348 177.766 70.9967C177.766 59.1669 185.026 50.8954 195.456 50.8954C205.911 50.8954 213.264 59.1669 213.264 70.9967C213.264 83.0203 206.097 91.1148 195.456 91.1148H195.447ZM195.447 33.2141C173.373 33.2141 157.353 49.1079 157.353 70.9967C157.353 92.8939 173.373 108.779 195.456 108.779C217.573 108.779 233.677 92.8939 233.677 71.0051C233.677 49.1079 217.573 33.2141 195.456 33.2141" fill="#4C4445"/>
</g>
</g>
<mask id="mask2_122_91" style="mask-type:luminance" maskUnits="userSpaceOnUse" x="0" y="0" width="797" height="137">
<path d="M0 0.81953H796.799V136.022H0V0.81953Z" fill="white"/>
</mask>
<g mask="url(#mask2_122_91)">
<mask id="mask3_122_91" style="mask-type:luminance" maskUnits="userSpaceOnUse" x="0" y="3" width="797" height="133">
<path d="M0 3.48378H796.631V135.845H0V3.48378Z" fill="white"/>
</mask>
<g mask="url(#mask3_122_91)">
<mask id="mask4_122_91" style="mask-type:luminance" maskUnits="userSpaceOnUse" x="0" y="0" width="797" height="137">
<path d="M0 136.022H796.799V0.81953H0V136.022Z" fill="white"/>
</mask>
<g mask="url(#mask4_122_91)">
<path d="M641.276 91.1153C630.854 91.1153 623.586 82.8353 623.586 70.9972C623.586 59.1674 630.854 50.8959 641.276 50.8959C651.748 50.8959 659.092 59.1674 659.092 70.9972C659.092 83.0208 651.925 91.1153 641.276 91.1153ZM641.276 33.2145C619.202 33.2145 603.19 49.1084 603.19 70.9972C603.19 92.8944 619.202 108.78 641.276 108.78C663.401 108.78 679.497 92.8944 679.497 71.0056C679.497 49.1084 663.392 33.2145 641.276 33.2145Z" fill="#4C4445"/>
<path d="M460.559 87.9027C449.184 87.9027 445.137 77.9869 445.137 68.6867C445.137 64.5889 446.174 51.2415 459.471 51.2415C466.073 51.2415 474.867 53.1302 474.867 69.3697C474.867 84.6902 467.085 87.9027 460.559 87.9027ZM485.668 34.5129C481.722 34.5129 478.687 36.0896 477.161 38.9648L476.587 40.0778L475.626 39.2347C472.27 36.3341 466.25 32.8856 456.478 32.8856C437.026 32.8856 423.931 47.4978 423.931 69.2264C423.931 90.9465 437.481 106.124 456.866 106.124C463.484 106.124 468.72 104.572 472.869 101.436L474.471 100.23V102.253C474.471 112.001 468.172 117.38 456.747 117.38C451.191 117.38 446.14 116.031 442.751 114.8C438.349 113.468 435.752 114.572 433.973 118.999L432.321 123.08L429.985 129.05L431.427 129.817C438.746 133.695 448.265 136.014 456.866 136.014C474.572 136.014 495.263 126.95 495.263 101.436L495.339 34.5129H485.668Z" fill="#4C4445"/>
</g>
</g>
</g>
<mask id="mask5_122_91" style="mask-type:luminance" maskUnits="userSpaceOnUse" x="0" y="0" width="797" height="137">
<path d="M0 0.81953H796.799V136.022H0V0.81953Z" fill="white"/>
</mask>
<g mask="url(#mask5_122_91)">
<mask id="mask6_122_91" style="mask-type:luminance" maskUnits="userSpaceOnUse" x="0" y="0" width="797" height="137">
<path d="M0 136.022H796.799V0.81953H0V136.022Z" fill="white"/>
</mask>
<g mask="url(#mask6_122_91)">
<path d="M36.2986 90.28L19.3677 90.2632V70.027C19.3677 65.6931 21.0456 63.4502 24.7471 62.9275H36.2986C44.5364 62.9275 49.8651 68.1214 49.8735 76.5279C49.8651 85.162 44.6713 90.2716 36.2986 90.2716V90.28ZM19.3677 35.6761V30.3472C19.3677 25.6845 21.3408 23.4669 25.6663 23.1803H34.3342C41.7626 23.1803 46.2145 27.6238 46.2145 35.069C46.2145 40.7351 43.1621 47.3541 34.6039 47.3541H19.3677V35.6761ZM57.9178 55.8785L54.8567 54.1585L57.5297 51.8735C60.641 49.2006 65.8436 43.1888 65.8436 32.8177C65.8436 16.9323 53.5332 6.67934 34.4691 6.67934H10.236C7.50932 6.77875 4.92553 7.92346 3.01986 9.87622C1.11419 11.829 0.0328363 14.4401 0 17.1684V107.304H34.8988C56.0877 107.304 69.7641 95.7691 69.7641 77.9022C69.7641 68.2816 65.3461 60.0607 57.9178 55.8785Z" fill="#4C4445"/>
<path d="M772.406 33.29C768.112 33.3058 763.876 34.2862 760.011 36.1586C756.147 38.031 752.752 40.7477 750.079 44.1079L748.578 46.0135L747.397 43.8803C743.536 36.8566 736.908 33.29 727.693 33.29C718.021 33.29 711.537 38.6863 708.527 41.8904L706.554 44.0236L705.795 41.2159C704.699 37.1686 701.099 34.9511 695.652 34.9511H686.908L686.823 107.633H706.681V75.5499C706.681 72.7337 707.035 69.9596 707.735 67.0507C709.632 59.2935 714.842 50.9545 723.603 51.7893C728.999 52.312 731.647 56.4857 731.647 64.5465V107.633H751.647V75.5499C751.647 72.0339 751.976 69.4032 752.769 66.7725C754.371 59.3694 759.818 51.7808 768.266 51.7808C774.388 51.7808 776.647 55.2378 776.647 64.5465V97.0087C776.647 104.344 779.919 107.633 787.263 107.633H796.605L796.622 61.2328C796.622 42.6914 788.46 33.29 772.406 33.29ZM591.68 82.3965C591.621 82.4723 583.08 91.4775 571.823 91.4775C561.57 91.4775 551.216 85.1874 551.216 71.1485C551.216 59.0237 559.243 50.5498 570.744 50.5498C574.471 50.5498 578.721 51.882 579.387 54.1333L579.479 54.5127C579.904 56.0626 580.829 57.429 582.109 58.4001C583.39 59.3712 584.955 59.8927 586.562 59.8837L597.439 59.9006V50.3896C597.439 37.8432 581.478 33.29 570.744 33.29C547.776 33.29 531.115 49.2766 531.115 71.3003C531.115 93.3071 547.591 109.277 570.323 109.277C590.036 109.277 600.761 96.3173 600.862 96.1908L601.436 95.4825L592.818 81.1907L591.68 82.3965Z" fill="#4C4445"/>
</g>
</g>
</svg>
