<svg width="801" height="241" viewBox="0 0 801 241" fill="none" xmlns="http://www.w3.org/2000/svg">
<path fill-rule="evenodd" clip-rule="evenodd" d="M497.08 188.351C450.764 222.597 383.396 240.842 325.291 240.842C243.887 240.842 170.905 210.807 115.326 160.842C111.115 156.912 114.764 151.579 120.098 154.667C179.887 189.474 253.712 210.246 330.062 210.246C381.431 210.246 438.133 199.579 490.343 177.404C498.203 174.316 504.659 182.737 497.08 188.351Z" fill="#4C4445"/>
<path fill-rule="evenodd" clip-rule="evenodd" d="M516.448 166.175C510.554 158.596 477.15 162.526 462.273 164.491C457.782 165.053 456.94 161.123 461.15 158.316C487.817 139.509 531.326 145.123 536.378 151.298C541.431 157.474 534.975 201.263 509.992 222.035C506.062 225.123 502.413 223.439 504.098 219.228C509.712 205.193 522.343 174.035 516.448 166.175Z" fill="#4C4445"/>
<path fill-rule="evenodd" clip-rule="evenodd" d="M463.115 26.3859V8.14033C463.115 5.33332 465.08 3.64909 467.606 3.64909H549.01C551.536 3.64909 553.782 5.61402 553.782 8.14033V23.5789C553.782 26.1052 551.536 29.4737 547.606 35.0877L505.501 95.1579C521.22 94.8772 537.782 97.1228 551.817 104.982C554.905 106.667 555.747 109.474 556.027 112V131.368C556.027 134.175 553.22 137.263 550.133 135.579C525.15 122.386 491.747 120.982 464.238 135.86C461.431 137.263 458.343 134.456 458.343 131.649V113.123C458.343 110.316 458.343 105.263 461.431 100.772L510.273 30.8772H467.887C465.361 30.8772 463.115 28.9123 463.115 26.3859ZM166.413 139.509H141.712C139.466 139.228 137.501 137.544 137.22 135.298V8.42105C137.22 5.89474 139.466 3.92981 141.992 3.92981H165.01C167.536 3.92981 169.22 5.89472 169.501 8.14033V24.7017H170.062C175.957 8.70172 187.466 1.12279 202.624 1.12279C218.062 1.12279 227.887 8.70172 234.624 24.7017C240.519 8.70172 254.273 1.12279 268.869 1.12279C279.255 1.12279 290.484 5.33332 297.501 15.1579C305.361 25.8245 303.676 41.2632 303.676 55.0176V135.298C303.676 137.825 301.431 139.789 298.905 139.789H274.484C271.957 139.509 269.992 137.544 269.992 135.298V67.9298C269.992 62.5964 270.554 49.1228 269.431 44.0701C267.466 35.6491 262.133 33.1228 254.834 33.1228C248.94 33.1228 242.484 37.0526 239.957 43.5088C237.431 49.9649 237.712 60.6315 237.712 67.9298V135.298C237.712 137.825 235.466 139.789 232.94 139.789H208.238C205.712 139.509 203.747 137.544 203.747 135.298V67.9298C203.747 53.8947 205.992 32.8421 188.589 32.8421C170.905 32.8421 171.466 53.0526 171.466 67.9298V135.298C171.185 137.544 169.22 139.509 166.413 139.509ZM623.957 1.12279C660.729 1.12279 680.659 32.5614 680.659 72.7017C680.659 111.439 658.764 142.316 623.957 142.316C588.027 142.316 568.378 110.877 568.378 71.5789C568.098 32 588.027 1.12279 623.957 1.12279ZM623.957 27.228C605.712 27.228 604.589 52.2105 604.589 67.6491C604.589 83.0877 604.308 116.211 623.676 116.211C642.764 116.211 643.887 89.5439 643.887 73.2632C643.887 62.5965 643.326 49.6842 640.238 39.579C637.431 30.5965 631.817 27.228 623.957 27.228ZM728.098 139.509H703.396C700.869 139.228 698.905 137.263 698.905 135.018V7.85961C699.185 5.614 701.15 3.64909 703.676 3.64909H726.694C728.94 3.64909 730.624 5.33335 731.185 7.29826V26.6667H731.747C738.764 9.26316 748.308 1.12279 765.431 1.12279C776.378 1.12279 787.326 5.05258 794.343 15.9999C800.799 26.1052 800.799 43.228 800.799 55.5789V135.579C800.519 137.825 798.554 139.509 796.027 139.509H771.326C769.08 139.228 767.115 137.544 766.834 135.579V66.5263C766.834 52.4912 768.519 32.2807 751.396 32.2807C745.501 32.2807 739.887 36.2105 737.08 42.386C733.712 50.2456 733.15 57.8245 733.15 66.5263V135.018C732.869 137.544 730.624 139.509 728.098 139.509ZM398.273 78.8772C398.273 88.4211 398.554 96.5614 393.782 105.263C389.852 112.281 383.676 116.491 376.659 116.491C367.115 116.491 361.501 109.193 361.501 98.5263C361.501 77.4737 380.308 73.5438 398.273 73.5438V78.8772ZM423.255 139.228C421.571 140.632 419.326 140.912 417.361 139.789C409.22 133.053 407.536 129.684 403.045 123.228C389.571 136.982 379.747 141.193 362.343 141.193C341.571 141.193 325.291 128.281 325.291 102.737C325.291 82.5263 336.238 69.0526 351.677 62.3157C365.15 56.421 383.957 55.2983 398.273 53.6141V50.5263C398.273 44.6316 398.834 37.6141 395.185 32.5614C392.098 28.0702 386.484 26.1052 381.431 26.1052C371.887 26.1052 363.466 30.8772 361.501 40.9825C360.94 43.2281 359.536 45.4736 357.291 45.4736L333.431 42.9473C331.466 42.3859 329.22 40.9825 329.782 37.8947C335.396 8.70176 361.501 0 385.08 0C397.15 0 412.87 3.0877 422.413 12.3509C434.484 23.5789 433.361 38.7369 433.361 55.0176V93.4737C433.361 104.982 438.133 110.035 442.624 116.491C444.308 118.737 444.589 121.544 442.624 122.947C437.291 127.158 428.308 135.018 423.255 139.228ZM74.0625 78.8772C74.0625 88.4211 74.3432 96.5614 69.5712 105.263C65.6414 112.281 59.466 116.491 52.4484 116.491C42.9046 116.491 37.2905 109.193 37.2905 98.5263C37.2905 77.4737 56.0976 73.5438 74.0625 73.5438V78.8772ZM98.7642 139.228C97.08 140.632 94.8344 140.912 92.8695 139.789C84.7291 133.053 83.0449 129.684 78.5537 123.228C65.08 136.982 55.2554 141.193 37.8519 141.193C17.08 141.193 0.799316 128.281 0.799316 102.737C0.799316 82.5263 11.7467 69.0526 27.1853 62.3157C40.6589 56.421 59.466 55.2983 73.7818 53.6141V50.5263C73.7818 44.6316 74.3432 37.6141 70.694 32.5614C67.6063 28.0702 61.9923 26.1052 56.9397 26.1052C47.3958 26.1052 38.9747 30.8772 37.0098 40.9825C36.4484 43.2281 35.0449 45.4736 32.7993 45.4736L8.93965 42.9473C6.97474 42.3859 4.72916 40.9825 5.29056 37.8947C10.9046 8.70176 37.0099 0 60.5888 0C72.659 0 88.3783 3.0877 97.9221 12.3509C109.992 23.5789 108.869 38.7369 108.869 55.0176V93.4737C108.869 104.982 113.641 110.035 118.133 116.491C119.817 118.737 120.098 121.544 118.133 122.947C112.799 127.158 103.817 135.018 98.7642 139.228Z" fill="#4C4445"/>
</svg>
