<svg width="462" height="455" viewBox="0 0 462 455" fill="none" xmlns="http://www.w3.org/2000/svg">
<path d="M345.336 335.928L461.42 265.782V312.409C461.42 390.166 397.003 453.196 317.545 453.196V384.687C317.545 374.916 320.098 365.306 324.962 356.772C329.826 348.238 336.84 341.062 345.336 335.928Z" fill="#E2BD88"/>
<path d="M181.127 285.75L181.525 395.629L459.04 227.537C459.768 227.096 460.369 226.481 460.785 225.749C461.202 225.018 461.421 224.194 461.421 223.357V131.953C461.421 59.6279 401.503 1 327.591 1H317.546V99.2288C317.547 113.817 313.749 128.165 306.511 140.919C299.273 153.673 288.833 164.412 276.177 172.123L229.157 200.757C214.409 209.741 202.255 222.266 193.848 237.142C185.442 252.018 181.063 268.751 181.127 285.75Z" fill="#E2BD88"/>
<path d="M145.13 1C65.6678 1 1.25586 64.0299 1.25586 141.787V312.41C1.25586 390.167 65.6678 453.197 145.13 453.197V1Z" stroke="#E2BD88" stroke-width="2" stroke-miterlimit="10"/>
</svg>
