<svg width="56" height="66" viewBox="0 0 56 66" fill="none" xmlns="http://www.w3.org/2000/svg">
<path d="M40.5853 38.8065L53.5478 30.8535V36.1411C53.5478 44.9548 46.355 52.0998 37.4824 52.0998V44.3337C37.4824 43.2261 37.7675 42.1368 38.3106 41.1694C38.8537 40.202 39.6367 39.3886 40.5853 38.8065Z" fill="#E2BD88"/>
<path d="M22.2491 33.1181L22.2941 45.5733L53.2818 26.5197C53.3631 26.4697 53.4302 26.4 53.4767 26.317C53.5232 26.234 53.5477 26.1406 53.5477 26.0456V15.6852C53.5477 7.48681 46.8569 0.842773 38.6037 0.842773H37.4823V11.9756C37.4822 13.6291 37.058 15.2554 36.2497 16.7009C35.4414 18.1465 34.2757 19.3636 32.8625 20.2374L27.6107 23.4854C25.9645 24.5039 24.6077 25.9235 23.6693 27.6094C22.7309 29.2954 22.242 31.1917 22.2491 33.1181Z" fill="#E2BD88"/>
<path d="M18.2299 0.841064C9.35732 0.841064 2.16455 7.98561 2.16455 16.7993V36.1406C2.16455 44.9544 9.35732 52.0994 18.2299 52.0994V0.841064Z" stroke="#E2BD88" stroke-miterlimit="10"/>
<path d="M0 60.417H0.367013V62.689H3.5299V60.417H3.8974V65.3275H3.5299V63.0281H0.367013V65.3275H0V60.417Z" fill="#E2BD88"/>
<path d="M8.32178 62.8848V62.8704C8.32178 61.5317 9.31692 60.3323 10.8135 60.3323C12.3101 60.3323 13.2912 61.5173 13.2912 62.8564V62.8704C13.2912 64.2096 12.2956 65.409 10.7995 65.409C9.30338 65.409 8.32178 64.2221 8.32178 62.8848ZM12.9097 62.8848V62.8704C12.9097 61.6575 12.0204 60.6608 10.7995 60.6608C9.57852 60.6608 8.70378 61.6436 8.70378 62.8564V62.8704C8.70378 64.0837 9.59351 65.0799 10.8145 65.0799C12.0354 65.0799 12.9106 64.0976 12.9106 62.8848H12.9097Z" fill="#E2BD88"/>
<path d="M17.7168 60.417H18.0625L20.0451 63.3202L22.0276 60.417H22.3734V65.3275H22.0063V61.0621L20.0533 63.8865H20.0248L18.0698 61.0606V65.3275H17.7168V60.417Z" fill="#E2BD88"/>
<path d="M27.0195 60.417H30.5344V60.7532H27.3865V62.6813H30.2167V63.0175H27.3865V64.9869H30.5702V65.3232H27.0195V60.417Z" fill="#E2BD88"/>
<path d="M34.9253 60.417H35.2923V64.9913H38.1936V65.3275H34.9253V60.417Z" fill="#E2BD88"/>
<path d="M44.3481 60.3823H44.7011L47.0008 65.3274H46.5985L45.9699 63.9532H43.0565L42.4279 65.3274H42.0469L44.3481 60.3823ZM45.8161 63.6212L44.5173 60.782L43.2117 63.6212H45.8161Z" fill="#E2BD88"/>
<path d="M51.2231 60.417H53.2628C53.8203 60.417 54.2724 60.5784 54.5475 60.8493C54.6503 60.9499 54.7314 61.0701 54.786 61.2027C54.8406 61.3353 54.8675 61.4775 54.8652 61.6207V61.6346C54.8652 62.3009 54.4276 62.6376 54.0253 62.7985C54.6181 62.9532 55.1404 63.2894 55.1404 63.9696V63.9835C55.1404 64.8039 54.4344 65.3227 53.3686 65.3227H51.2231V60.417ZM53.2202 62.6818C53.9615 62.6818 54.491 62.3244 54.491 61.6731V61.6591C54.491 61.1192 54.0461 60.7547 53.256 60.7547H51.5902V62.6827L53.2202 62.6818ZM53.3827 64.9874C54.2298 64.9874 54.7661 64.6031 54.7661 63.9845V63.9705C54.7661 63.3677 54.2366 63.0171 53.2628 63.0171H51.5902V64.9864L53.3827 64.9874Z" fill="#E2BD88"/>
</svg>
