<svg width="800" height="275" viewBox="0 0 800 275" fill="none" xmlns="http://www.w3.org/2000/svg">
<path d="M123.71 134.024H158.114V182.345C147.379 185.794 133.826 187.686 119.736 187.686C62.6353 187.686 29.075 138.788 29.075 91.033C29.075 44.1955 59.4309 11.3418 101.781 11.3418C128.58 11.3418 144.173 20.4206 158.124 33.0669V48.8322L184.281 22.6743C167.736 11.4805 143.779 0.842285 109.535 0.842285C34.3622 0.842285 0.00146484 54.6224 0.00146484 98.8195C0.00146484 161.73 45.8232 199.627 103.406 199.627C131.326 199.627 156.116 195.365 184.752 187.397V137.474C184.752 134.921 185.874 133.17 187.551 131.632L196.587 122.596H135.225L123.71 134.024Z" fill="#4C4445"/>
<path d="M277.827 68.3572C234.558 68.3572 207.749 99.9742 207.749 133.534C207.749 162.501 229.347 196.893 273.106 196.893C315.2 196.893 341.027 165.214 341.027 131.067C341.027 99.2587 315.788 68.3689 277.827 68.3689V68.3572ZM270.648 77.5751C301.154 77.5751 314.74 117.319 314.74 145.667C314.74 187.825 283.113 188.658 279.332 188.658C264.86 188.658 254.744 179.911 247.172 168.439C240.507 157.865 233.992 138.222 233.992 119.028C233.992 99.9092 240.25 90.5739 250.099 83.706C258.153 78.5577 265.694 77.5751 270.638 77.5751H270.648Z" fill="#4C4445"/>
<path d="M560.673 68.3464C522.883 68.3464 502.439 92.2722 502.439 118.985C502.439 139.322 517.008 162.265 547.064 162.265H554.668C554.668 162.265 552.597 167.296 552.587 172.156C552.587 179.324 555.161 183.349 560.628 189.544C508.911 192.695 488.125 213.556 488.125 235.975C488.125 255.608 506.925 274.93 546.433 274.93C593.205 274.93 617.43 248.963 617.43 223.479C617.43 205.514 608.48 195.666 585.814 178.683C579.149 173.502 577.857 170.203 577.857 166.326C577.857 160.772 581.179 157.096 582.396 155.709C584.543 153.444 588.26 150.86 589.649 149.621C597.264 143.169 608.02 133.622 608.02 114.565C608.02 101.492 602.582 90.2448 590.193 79.7133H605.318L616.682 68.3488H560.673V68.3464ZM550.249 76.8485C557.106 76.8485 562.83 79.2733 568.875 84.3041C575.582 90.3496 586.297 106.595 586.297 126.697C586.297 148.39 569.442 154.329 560.321 154.329C555.856 154.329 550.506 153.079 545.976 149.982C535.915 143.457 525.927 126.088 525.927 105.42C525.927 86.7712 537.035 76.8485 550.249 76.8485ZM565.213 197.78C568.095 197.78 570.169 198.016 570.169 198.016C570.169 198.016 576.972 202.875 581.726 206.506C592.791 215.254 599.69 221.94 599.69 233.851C599.69 250.225 584.501 263.063 559.903 263.063C532.902 263.063 512.266 250.491 512.266 229.964C512.266 212.958 526.407 198.323 565.213 197.78Z" fill="#4C4445"/>
<path d="M624.866 193.144H676.743L684.646 185.241L669.767 183.383C665.762 182.891 663.381 179.431 663.381 176.077V19.3751C663.381 16.2882 664.813 14.7074 665.858 13.7023L675.216 4.3457H630.975L619.461 15.8599H636.657V178.18C636.657 180.487 635.931 182.057 634.372 183.67L624.866 193.144Z" fill="#4C4445"/>
<path d="M747.035 68.3572C718.068 68.3572 687.296 90.4349 687.296 130.072C687.296 162.809 709.374 196.893 750.624 196.893C760.91 196.893 769.38 195.57 777.316 191.927C785.829 188.008 794.022 181.642 800.002 173.641C788.713 179.334 779.506 183.073 767.275 183.073C744.033 183.073 721.624 166.304 713.784 135.478L795.89 102.292C791.147 85.3838 777.774 68.3572 747.046 68.3572H747.035ZM741.672 77.4254C757.214 77.4254 768.45 90.2107 768.45 100.219C768.45 103.455 766.421 105.164 762.404 106.745L711.936 127.156C711.936 127.156 710.57 120.801 710.57 113.933C710.57 85.1266 731.398 77.4254 741.672 77.4254Z" fill="#4C4445"/>
<path d="M424.649 68.3572C381.38 68.3572 354.571 99.9742 354.571 133.534C354.571 162.501 376.169 196.893 419.928 196.893C462.022 196.893 487.849 165.214 487.849 131.067C487.849 99.2587 462.61 68.3689 424.649 68.3689V68.3572ZM417.471 77.5751C447.977 77.5751 461.562 117.319 461.562 145.667C461.562 187.825 429.935 188.658 426.154 188.658C411.681 188.658 401.567 179.911 393.995 168.439C387.33 157.865 380.814 138.222 380.814 119.028C380.814 99.9092 387.072 90.5739 396.921 83.706C404.975 78.5577 412.515 77.5751 417.46 77.5751H417.471Z" fill="#4C4445"/>
</svg>
