<svg width="666" height="99" viewBox="0 0 666 99" fill="none" xmlns="http://www.w3.org/2000/svg">
<path fill-rule="evenodd" clip-rule="evenodd" d="M365.485 45.9499C365.485 45.9499 359.015 41.949 355.014 40.401C355.014 40.401 342.63 34.6611 340.173 31.9301C340.173 31.9301 335.346 27.3814 338.172 22.098C338.172 22.098 339.355 18.6408 344.456 18.6408C344.456 18.6408 351.096 19.006 351.096 24.4637V32.1626H374.894L374.853 20.8239C374.853 20.8239 376.683 2.25532 346.821 1.4377C346.821 1.4377 323.335 -0.10624 316.599 12.544C316.599 12.544 313.955 15.3662 313.955 25.1942V32.2954C313.955 32.2954 313.685 40.4881 317.869 45.7673C317.869 45.7673 320.234 49.2287 326.062 53.047C326.062 53.047 337.894 59.4177 344.995 63.0659C344.995 63.0659 352.163 67.1581 351.221 73.67C351.221 73.67 350.636 80.3561 343.713 80.0822C343.713 80.0822 337.384 79.8 337.384 73.2425V65.5478H312.025V76.7246C312.025 76.7246 311.315 98.0988 343.9 98.0988C343.9 98.0988 375.035 98.7296 376.488 76.1643V67.0626C376.484 67.0626 377.588 53.2338 365.485 45.9499ZM243.649 4.09806L235.68 54.0348H233.816L226.205 4.5463H186.453L184.461 94.9777H207.997L208.279 26.8418H210.13L222.606 94.9653H247.367L259.69 26.8667H261.329L261.897 94.9777H285.559L283.01 4.09806H243.649ZM103.542 4.47575L87.8827 94.874H113.22L122.496 24.7833H124.58L133.852 94.874H159.185L143.53 4.47575H103.542ZM635.207 44.7048V58.0398H641.706V72.3543C641.706 79.3517 635.726 79.4804 635.726 79.4804C628.454 79.4804 628.728 72.8316 628.728 72.8316V23.3182C628.728 18.2174 635.182 17.9435 635.182 17.9435C641.374 17.9435 641.416 24.0279 641.416 24.0279V31.5566H665.272C666.052 16.8603 663.122 13.3035 663.122 13.3035C657.203 0.0141459 634.817 0.74045 634.817 0.74045C600.415 0.74045 604.233 27.1365 604.233 27.1365V75.0105C604.972 99.7672 638.871 97.2521 639.444 97.2314C654.522 95.5629 659.075 90.7693 659.075 90.7693C663.267 87.6566 664.346 83.3444 664.346 83.3444C665.546 80.8334 665.844 72.8316 665.844 72.8316V44.7048H635.207ZM556.131 59.4177H555.093L530.884 4.12294H501.919V94.986H525.493L524.082 39.6996H525.136L550.216 94.986H578.302V4.11465H554.429L556.131 59.4177ZM444.375 72.346C444.375 72.346 444.715 79.8041 437.801 79.8041C437.801 79.8041 430.529 80.1943 430.529 72.5328L430.455 4.1769H404.598V71.9891C404.598 71.9891 401.946 97.6547 438.166 97.6547C438.166 97.6547 469.642 98.0282 469.642 73.1678V4.18105H444.375V72.346ZM54.2484 45.9499C54.2484 45.9499 47.7864 41.949 43.7813 40.4051C43.7813 40.4051 31.4051 34.6694 28.9481 31.9343C28.9481 31.9343 24.1212 27.3772 26.9518 22.1063C26.9518 22.1063 28.1304 18.6491 33.227 18.6491C33.227 18.6491 39.8717 19.0102 39.8717 24.4678V32.1667H63.678L63.6323 20.8239C63.6323 20.8239 65.4502 2.25531 35.601 1.44185C35.601 1.44185 33.3516 1.29658 30.052 1.46259C30.052 1.46259 11.9691 2.43377 5.50288 12.353C5.46552 12.4278 5.41157 12.4817 5.37422 12.5481C5.37422 12.5481 2.73461 15.3662 2.73461 25.1983V32.2995C2.73461 32.2995 2.46068 40.4923 6.64836 45.7715C6.64836 45.7715 9.01405 49.2328 14.8411 53.0511C14.8411 53.0511 26.6695 59.4219 33.7707 63.07C33.7707 63.07 40.9466 67.1539 39.9962 73.6741C39.9962 73.6741 39.411 80.3603 32.4924 80.0863C32.4924 80.0863 26.1632 79.8041 26.1632 73.2466V65.5478H0.800553V76.7329C0.800553 76.7329 0.0908508 98.1071 32.675 98.1071C32.675 98.1071 63.8025 98.7379 65.2675 76.1726V67.0792C65.2675 67.0709 66.3549 53.2338 54.2484 45.9499Z" fill="#4C4445"/>
</svg>
