<svg width="800" height="238" viewBox="0 0 800 238" fill="none" xmlns="http://www.w3.org/2000/svg">
<path d="M783.247 141.879C782.792 144.159 781.994 146.097 780.91 147.807C779.83 149.514 778.403 150.885 776.583 151.965C774.814 152.993 772.594 153.561 769.971 153.561C767.408 153.561 765.184 153.049 763.419 151.965C761.657 150.934 760.155 149.511 759.031 147.807C757.947 146.099 757.149 144.159 756.638 141.879C756.135 139.615 755.887 137.303 755.896 134.984C755.896 132.591 756.126 130.197 756.581 127.977C757.036 125.697 757.834 123.703 758.918 121.993C759.999 120.224 761.425 118.859 763.246 117.72C765.015 116.636 767.236 116.067 769.857 116.067C772.421 116.067 774.587 116.636 776.353 117.72C778.123 118.815 779.623 120.295 780.742 122.049C781.882 123.815 782.679 125.866 783.191 128.09C783.702 130.369 783.932 132.647 783.932 134.984C783.932 137.321 783.702 139.6 783.247 141.879ZM798.406 123.474C797.322 119.656 795.729 116.351 793.562 113.445C791.338 110.597 788.604 108.259 785.299 106.551C781.993 104.841 778.006 103.93 773.39 103.93C769.743 103.93 766.436 104.671 763.418 106.096C760.396 107.521 757.889 109.856 755.951 112.99H755.724V105.525H740.453V184.561H756.522V156.808H756.749C758.643 159.596 761.237 161.837 764.272 163.305C767.35 164.786 770.655 165.527 774.301 165.527C778.575 165.527 782.335 164.674 785.584 163.02C788.719 161.414 791.462 159.138 793.619 156.353C795.785 153.561 797.379 150.368 798.406 146.723C799.49 143.075 800.002 139.317 800.002 135.383C800.002 131.224 799.49 127.236 798.406 123.416V123.474ZM719.142 141.879C718.687 144.159 717.889 146.097 716.805 147.807C715.721 149.516 714.298 150.885 712.474 151.965C710.708 152.993 708.486 153.561 705.866 153.561C703.299 153.561 701.136 153.049 699.311 151.965C697.549 150.933 696.048 149.51 694.922 147.807C693.842 146.099 693.044 144.159 692.532 141.879C692.029 139.615 691.78 137.303 691.791 134.984C691.791 132.591 692.018 130.197 692.473 127.977C692.931 125.697 693.726 123.703 694.81 121.993C695.894 120.224 697.317 118.859 699.141 117.72C700.906 116.636 703.129 116.067 705.749 116.067C708.315 116.067 710.479 116.636 712.248 117.72C714.017 118.814 715.516 120.294 716.633 122.049C717.773 123.815 718.571 125.866 719.086 128.09C719.597 130.369 719.824 132.647 719.824 134.984C719.824 137.321 719.597 139.6 719.142 141.879ZM729.454 113.445C727.289 110.597 724.497 108.259 721.192 106.551C717.888 104.841 713.899 103.93 709.282 103.93C705.635 103.93 702.331 104.671 699.309 106.096C696.291 107.521 693.784 109.856 691.846 112.99H691.616V105.525H676.344V184.561H692.413V156.808H692.643C694.538 159.596 697.132 161.837 700.167 163.305C703.242 164.786 706.546 165.527 710.192 165.527C714.523 165.527 718.227 164.674 721.479 163.02C724.612 161.413 727.354 159.137 729.51 156.353C731.678 153.561 733.273 150.368 734.357 146.723C735.409 143.034 735.945 139.218 735.953 135.383C735.953 131.224 735.438 127.236 734.357 123.416C733.273 119.6 731.678 116.294 729.454 113.389V113.445ZM623.691 132.82L634.233 103.13H634.461L644.662 132.82H623.691ZM625.401 83.1867L594.801 164.045H612.694L619.021 146.039H649.278L655.375 164.045H673.837L643.58 83.1867H625.344H625.401ZM593.49 138.403C592.406 136.58 591.039 134.984 589.274 133.731C587.564 132.479 585.568 131.507 583.346 130.711C581.094 129.971 578.813 129.325 576.508 128.775C574.229 128.26 572.006 127.747 569.84 127.292C567.674 126.837 565.679 126.322 564.028 125.753C562.32 125.184 560.951 124.444 559.925 123.53C558.841 122.619 558.33 121.48 558.33 119.999C558.33 118.802 558.615 117.833 559.24 117.091C559.867 116.351 560.609 115.838 561.463 115.44C562.318 115.041 563.286 114.812 564.37 114.7C565.354 114.591 566.343 114.534 567.333 114.529C570.182 114.529 572.69 115.099 574.8 116.181C576.908 117.263 578.104 119.372 578.275 122.448H593.547C593.26 118.801 592.294 115.838 590.755 113.444C589.216 111.049 587.279 109.171 584.943 107.746C582.606 106.321 579.928 105.297 576.964 104.669C574.002 104.042 570.924 103.757 567.733 103.757C564.544 103.757 561.466 104.044 558.446 104.611C555.425 105.181 552.691 106.15 550.298 107.575C547.849 109 545.91 110.882 544.486 113.273C543.004 115.666 542.264 118.802 542.264 122.561C542.264 125.126 542.775 127.291 543.859 129.056C544.885 130.825 546.308 132.305 548.018 133.501C549.785 134.642 551.723 135.611 553.946 136.351C556.168 137.091 558.447 137.72 560.784 138.231C566.54 139.428 570.985 140.624 574.232 141.821C577.423 143.017 579.02 144.841 579.02 147.234C579.02 148.659 578.677 149.855 577.994 150.824C577.324 151.77 576.447 152.549 575.428 153.102C574.402 153.672 573.262 154.072 572.009 154.355C570.832 154.623 569.628 154.757 568.42 154.754C566.824 154.754 565.285 154.585 563.861 154.185C562.379 153.786 561.069 153.213 559.93 152.417C558.79 151.62 557.878 150.594 557.138 149.341C556.397 148.088 556.054 146.605 556.054 144.896H540.783C540.953 148.826 541.81 152.075 543.462 154.696C545.057 157.319 547.166 159.37 549.673 160.965C552.18 162.56 555.086 163.699 558.335 164.382C561.583 165.068 564.887 165.41 568.306 165.41C571.612 165.41 574.915 165.068 578.108 164.439C581.298 163.813 584.148 162.673 586.655 161.078C589.163 159.482 591.157 157.374 592.696 154.809C594.233 152.189 595.031 148.998 595.031 145.122C595.031 142.388 594.52 140.11 593.436 138.284L593.49 138.403ZM510.92 87.9744V105.525H501.174V116.294H510.92V150.827C510.92 153.791 511.431 156.127 512.401 157.95C513.371 159.775 514.738 161.14 516.447 162.168C518.157 163.136 520.096 163.82 522.317 164.162C524.656 164.51 527.019 164.681 529.384 164.674C530.979 164.674 532.574 164.617 534.284 164.561C535.793 164.51 537.297 164.357 538.785 164.104V151.624C537.998 151.802 537.199 151.916 536.394 151.965C535.522 152.034 534.647 152.072 533.772 152.08C531.037 152.08 529.269 151.624 528.359 150.711C527.447 149.801 526.991 147.975 526.991 145.299V116.294H538.785V105.525H526.991V87.9744H510.92ZM480.888 141.424C480.888 142.334 480.775 143.532 480.603 145.071C480.411 146.645 479.887 148.16 479.064 149.516C478.21 150.999 476.956 152.252 475.19 153.336C473.482 154.416 470.973 154.931 467.84 154.931C466.586 154.931 465.331 154.815 464.079 154.588C462.882 154.358 461.8 153.96 460.888 153.392C459.976 152.821 459.293 152.081 458.722 151.055C458.21 150.087 457.924 148.89 457.924 147.408C457.924 145.869 458.21 144.672 458.722 143.648C459.235 142.676 459.974 141.879 460.832 141.197C461.686 140.57 462.712 140.058 463.908 139.659C465.105 139.26 466.245 138.974 467.498 138.746C468.784 138.525 470.076 138.335 471.372 138.177C472.683 138.006 473.881 137.834 475.077 137.607C476.274 137.38 477.356 137.094 478.382 136.753C479.408 136.412 480.262 135.956 480.947 135.328V141.313L480.888 141.424ZM496.957 151.054V120.567C496.957 117.035 496.159 114.185 494.566 112.02C492.97 109.854 490.917 108.203 488.467 107.006C485.96 105.81 483.224 105.012 480.204 104.557C477.24 104.152 474.251 103.942 471.259 103.93C468.009 103.93 464.762 104.272 461.571 104.899C458.382 105.526 455.475 106.607 452.91 108.148C450.385 109.65 448.224 111.694 446.584 114.132C444.933 116.639 443.963 119.772 443.736 123.534H459.806C460.09 120.345 461.173 118.122 462.995 116.753C464.82 115.385 467.269 114.703 470.462 114.703C471.887 114.703 473.252 114.816 474.508 114.988C475.675 115.141 476.799 115.529 477.813 116.128C478.783 116.697 479.522 117.495 480.093 118.521C480.663 119.547 480.947 120.912 480.947 122.68C481.004 124.331 480.548 125.587 479.464 126.498C478.382 127.352 476.957 128.037 475.135 128.492C473.313 128.947 471.261 129.29 468.924 129.518C466.587 129.746 464.194 130.031 461.801 130.43C459.408 130.829 457.014 131.34 454.621 131.967C452.228 132.594 450.118 133.563 448.294 134.875C446.414 136.184 444.933 137.893 443.736 140.002C442.54 142.168 441.969 144.904 441.969 148.209C441.969 151.229 442.48 153.85 443.508 156.015C444.47 158.125 445.914 159.98 447.725 161.43C449.606 162.893 451.755 163.977 454.05 164.62C456.443 165.304 459.064 165.645 461.856 165.645C465.504 165.645 469.037 165.133 472.512 164.05C475.95 163 479.066 161.099 481.573 158.524C481.629 159.492 481.801 160.458 481.972 161.43C482.142 162.34 482.427 163.31 482.713 164.222H499.011C498.269 163.025 497.7 161.2 497.415 158.807C497.114 156.292 496.961 153.762 496.959 151.229V151.054H496.957ZM430.743 110.596C429.148 108.545 426.982 106.892 424.248 105.752C421.512 104.555 417.981 103.984 413.648 103.984C410.628 103.984 407.551 104.782 404.361 106.321C401.17 107.86 398.605 110.367 396.554 113.728H396.212V83.243H380.143V164.103H396.212V133.389C396.212 127.405 397.182 123.132 399.176 120.51C401.114 117.889 404.304 116.636 408.692 116.636C412.51 116.636 415.245 117.833 416.726 120.224C418.209 122.617 419.007 126.208 419.007 131.051V164.103H435.076V128.09C435.076 124.442 434.733 121.139 434.106 118.175C433.479 115.211 432.339 112.648 430.743 110.596ZM345.78 138.974H345.551L331.763 83.2446H315.122L301.103 138.291H300.875L288.053 83.2446H270.276L291.7 164.104H309.707L323.155 109.057H323.384L337.06 164.104H354.725L364.411 128.204L376.492 83.2446H359.054L345.78 138.974Z" fill="#4C4445"/>
<path d="M119.553 212.767C99.8928 212.767 81.5447 206.841 66.2168 196.756L28.9479 208.663L41.0289 172.65C29.4047 156.694 22.5681 137.035 22.5681 115.837C22.5681 62.386 66.0463 18.9079 119.497 18.9079C172.948 18.9079 216.426 62.386 216.426 115.837C216.426 169.286 172.948 212.766 119.497 212.766H119.553V212.767ZM119.553 0.558105C55.9 0.558105 4.27464 52.1883 4.27464 115.838C4.27464 137.606 10.3151 158.006 20.7991 175.386L0 237.214L63.8237 216.757C80.8828 226.19 100.06 231.132 119.553 231.117C183.205 231.117 234.832 179.49 234.832 115.838C234.83 52.1883 183.205 0.558105 119.553 0.558105Z" fill="#4C4445"/>
<path d="M92.4854 68.1435C90.6054 63.6421 89.1805 63.4716 86.3324 63.3558C85.2508 63.2861 84.1675 63.2486 83.0838 63.2432C79.3784 63.2432 75.5042 64.3256 73.1675 66.7186C70.3193 69.6246 63.2528 76.4049 63.2528 90.3095C63.2528 104.214 73.3958 117.662 74.7628 119.544C76.1877 121.422 94.5375 150.37 123.029 162.168C145.309 171.399 151.92 170.544 156.991 169.461C164.398 167.866 173.688 162.393 176.024 155.785C178.361 149.174 178.361 143.532 177.676 142.335C176.992 141.139 175.111 140.457 172.263 139.03C169.414 137.606 155.566 130.767 152.945 129.856C150.38 128.887 147.93 129.23 145.994 131.966C143.258 135.784 140.581 139.659 138.414 141.994C136.705 143.818 133.911 144.047 131.576 143.077C128.442 141.768 119.667 138.688 108.839 129.058C100.462 121.594 94.7642 112.307 93.1126 109.515C91.4594 106.667 92.9421 105.012 94.2512 103.474C95.6761 101.707 97.0431 100.454 98.468 98.8009C99.8929 97.1493 100.691 96.2937 101.602 94.3558C102.572 92.4758 101.887 90.5379 101.204 89.113C100.52 87.6881 94.8221 73.7835 92.4854 68.1435Z" fill="#4C4445"/>
</svg>
