<svg width="800" height="191" viewBox="0 0 800 191" fill="none" xmlns="http://www.w3.org/2000/svg">
<path d="M126.205 101.109C125.951 85.631 132.637 73.5822 146.246 64.9578C138.571 53.7968 127.251 47.5237 112.283 46.1212C106.959 45.6212 100.151 46.8798 91.8707 49.9286C82.9634 53.231 77.9488 54.8725 76.8366 54.8725C74.4854 54.8725 69.9707 53.4847 63.2805 50.6871C56.6049 47.8968 50.9098 46.5017 46.2073 46.5017C38.2902 46.631 30.9244 48.8188 24.122 53.0651C17.3171 57.3164 11.8756 63.1237 7.79512 70.4725C2.59268 79.609 0 90.5188 0 103.199C0 114.614 1.91219 126.026 5.74634 137.448C9.33415 148.358 13.9195 157.933 19.4805 166.17C24.4244 173.655 28.7707 179.109 32.4707 182.538C37.7976 187.863 43.2341 190.404 48.8098 190.146C52.3951 190.014 57.0927 188.685 62.9098 186.141C68.3488 183.743 73.7976 182.536 79.2439 182.536C84.3146 182.536 89.5683 183.736 95.0195 186.141C101.078 188.685 106.032 189.951 109.866 189.951C115.559 189.702 120.876 187.226 125.832 182.538C127.556 181.009 129.446 178.919 131.485 176.255C133.839 173.153 136.1 169.981 138.263 166.743C140.066 163.951 141.769 161.096 143.368 158.182C145.084 155.045 146.602 151.804 147.915 148.477C148.527 147.082 149.083 145.658 149.583 144.199C150.076 142.741 150.571 141.255 151.066 139.731C146.488 137.707 142.341 134.841 138.632 131.16C130.476 123.055 126.329 113.031 126.205 101.109ZM260.783 135.026H259.883L222.193 48.8944H192.595V187.863H218.39V97.8603H219.588L251.085 169.329H269.176L300.573 97.8603H301.776V187.863H327.868V48.8944H298.473L260.783 135.026ZM102.815 30.7139C109.376 22.4676 112.656 13.5895 112.656 4.0749V2.1749C112.656 1.53587 112.593 0.904166 112.471 0.27002C107.89 0.523678 103.037 1.98465 97.8976 4.64319C92.7659 7.31148 88.5293 10.6773 85.1829 14.7286C78.5049 22.7261 75.161 31.2822 75.161 40.4164V42.2188C75.161 42.7944 75.2244 43.3944 75.3463 44.0334C85.6195 45.0456 94.7756 40.6042 102.815 30.7139ZM629.351 48.8944H658.344V187.865H629.351V48.8944ZM745.91 70.9847C763.105 70.9847 772.198 84.2212 772.198 98.4749H800V95.5212C800 68.6456 779.502 46.2505 745.707 46.2505C709.512 46.2505 687.919 70.0725 687.919 110.697V126.377C687.919 166.99 709.312 190.516 745.605 190.516C780.3 190.516 800 167.804 800 142.56V139.507H772.2C772.2 153.868 763.305 165.777 746.115 165.777C728.512 165.777 717.312 153.253 717.312 126.472V110.804C717.312 84.1164 728.615 70.9847 745.91 70.9847ZM438.756 136.651C438.756 155.287 427.859 165.565 411.863 165.565C395.766 165.565 384.871 155.385 384.871 136.651V48.8944H356.073V140.724C356.073 170.358 377.066 190.514 411.859 190.514C446.554 190.514 467.646 170.358 467.646 140.724V48.8944H438.756V136.651ZM563.571 106.926L542.878 102.248C530.683 99.6944 524.283 94.3017 524.283 86.2554C524.283 75.57 532.978 68.8481 546.983 68.8481C562.778 68.8481 570.676 77.909 571.373 87.6847H598.368C598.068 63.1456 577.576 46.0432 547.078 46.0432C518.188 46.0432 495.39 61.2164 495.39 88.4993C495.39 112.119 511.39 123.107 530.585 127.292L551.078 132.072C564.876 135.229 571.873 139.814 571.873 149.275C571.873 160.075 563.273 167.407 547.18 167.407C529.883 167.407 520.783 158.241 519.988 147.955H492.19C492.598 167.607 505.593 190.514 545.785 190.514C579.576 190.514 600.476 173.716 600.476 146.421C600.466 121.172 583.568 111.297 563.571 106.926Z" fill="#4C4445"/>
</svg>
