<svg width="800" height="270" viewBox="0 0 800 270" fill="none" xmlns="http://www.w3.org/2000/svg">
<path d="M74.0345 1.63687C68.7148 3.67089 59.9529 14.6233 54.7896 25.4192C47.7488 40.4396 44.6195 53.7389 44.6195 69.0723C44.6195 80.1811 45.2454 83.7798 48.844 91.7594C51.191 96.7662 54.9461 103.025 57.293 105.528C62.6128 111.161 72.4699 115.698 79.1978 115.855C83.4223 115.855 84.2046 116.48 84.2046 119.766C84.2046 121.957 82.7964 127.12 81.2318 131.501C74.3475 149.494 60.4223 159.664 42.1161 159.664C29.1297 159.664 19.742 155.44 16.2998 148.086C12.0753 139.168 13.0141 133.691 20.2114 124.929C25.0617 119.297 26.9393 115.542 27.5651 110.378C28.191 104.12 27.878 103.181 24.5923 102.086C15.674 98.8002 4.5651 107.093 1.12292 119.297C0.184143 123.052 -0.285245 130.093 0.184143 135.1C2.53108 160.759 21.776 173.902 53.6944 171.712C71.2182 170.46 80.293 167.018 89.8373 157.317C99.8509 147.46 104.075 136.351 106.109 116.011C107.83 98.8002 108.143 32.9294 106.735 15.2491C105.64 3.35796 105.64 3.2015 100.79 2.57565C89.6808 0.854558 77.0073 0.38517 74.0345 1.63687ZM83.7352 23.8546C84.674 25.1063 84.9869 40.4396 84.5175 62.1879C83.8917 95.9839 83.5788 98.6437 80.9189 99.426C75.7556 101.147 69.4971 96.7662 65.4291 88.4737C61.8304 81.4328 61.5175 78.773 61.5175 61.875C61.5175 41.5349 63.2386 34.1811 69.6536 26.6709C73.7216 21.6641 80.9189 20.2559 83.7352 23.8546ZM272.899 5.86136C272.429 7.11307 271.96 11.8069 271.96 16.1879C271.96 20.7253 271.49 29.0178 270.865 34.807L269.926 45.4464H262.729C255.688 45.4464 244.266 47.6369 242.701 49.0451C242.388 49.5145 242.701 51.2355 243.64 52.9566C245.205 55.773 248.49 57.0247 265.388 60.4668L268.831 61.0927L268.518 98.3308C268.048 130.875 268.361 136.664 271.021 145.113C276.028 161.698 287.45 171.712 299.028 169.521C304.817 168.426 312.484 160.134 317.647 149.494C319.994 144.331 322.028 141.515 322.028 143.236C322.028 148.399 329.382 162.324 333.293 164.984C335.327 166.392 340.803 168.113 345.341 169.052C358.797 171.555 366.62 165.923 374.599 147.773L377.103 141.671L378.511 146.208C380.232 152.467 388.681 160.759 394.314 161.855C400.416 163.106 408.552 159.508 412.776 153.719L416.375 148.868L419.661 155.44C424.042 163.889 428.735 167.174 440.001 169.208C448.293 170.617 449.701 170.617 453.3 167.8C455.491 166.236 459.246 161.385 461.593 157.161L465.974 149.494V168.113L454.395 179.535C441.565 192.052 432.178 208.481 427.64 226.161C419.974 256.358 429.674 269.657 459.559 269.814C472.389 269.97 472.545 269.97 476.926 264.807C484.28 256.045 485.375 249.474 486.314 209.732L487.096 172.964H492.103C494.919 172.964 498.048 172.025 499.144 170.93C500.865 169.208 500.552 168.27 497.423 165.766C495.389 164.202 491.946 162.793 489.756 162.793H485.844L486.627 137.29C487.253 117.732 488.035 110.691 490.069 106.78L492.729 101.617L487.565 99.5825L482.402 97.392V83.3104C482.402 69.8546 482.089 68.9158 478.021 64.5349C475.674 62.0315 470.667 59.2151 467.069 58.1199C463.47 57.1811 457.212 54.8342 453.144 52.9566C444.538 49.0451 440.001 49.8274 432.491 56.3988C421.851 65.7866 416.531 84.2492 414.497 118.202C413.246 139.95 410.899 147.617 404.953 149.494C400.572 150.902 397.599 148.086 395.565 141.045C393.531 133.378 393.531 115.698 395.878 106.936C397.599 100.052 397.443 99.5825 393.688 96.4533C390.089 93.4805 389.62 91.7594 388.994 80.1811C388.055 63.7526 385.708 60.4668 371.157 54.5213C342.055 42.6301 327.504 55.773 322.028 99.2696C321.246 105.997 319.837 112.412 319.055 113.351C318.273 114.29 316.395 119.923 315.144 125.712C312.014 138.855 307.633 147.929 302.314 151.215C298.558 153.719 298.246 153.719 295.273 150.746C290.579 146.052 289.171 131.344 290.11 98.6437C291.205 57.6505 290.579 59.9975 301.062 58.5893C305.912 58.1199 314.361 57.4941 319.837 57.4941C330.633 57.3376 332.198 55.9294 326.722 50.9226C324.218 48.7321 319.994 47.7934 308.259 47.1675L293.082 46.2287L293.395 35.2764C293.552 29.1743 294.178 20.8818 294.647 16.8138C295.586 9.46001 295.429 9.30354 290.422 7.26953C281.661 3.82735 273.837 3.04504 272.899 5.86136ZM460.81 71.1063C464.878 74.7049 465.191 75.6437 465.035 86.4397C464.722 107.562 460.654 131.344 455.491 141.671C451.892 148.868 445.477 154.97 441.409 154.97C439.375 154.97 436.715 153.249 435.15 150.746C430.926 144.487 431.082 103.181 435.307 90.8206C439.375 78.6165 443.756 72.0451 449.389 69.5417C455.803 66.7253 455.804 66.7253 460.81 71.1063ZM370.218 74.392C374.443 79.8682 376.008 91.29 373.035 95.8274C371.783 97.8614 370.062 106.936 369.123 116.168C366.776 137.134 363.647 148.086 358.014 153.719C351.443 160.134 345.967 159.664 342.837 152.154C336.735 137.916 339.239 96.7662 347.218 81.2764C352.851 70.1675 364.273 66.7253 370.218 74.392ZM464.409 232.106C461.593 250.256 454.865 259.644 446.259 257.61C438.123 255.576 435.62 240.868 440.157 223.032C443.599 210.045 451.892 192.991 459.089 184.698L465.191 177.814L465.661 199.562C465.817 211.61 465.348 226.317 464.409 232.106Z" fill="#4C4445"/>
<path d="M582.538 57.0247C574.559 65.3172 569.865 77.8342 567.518 97.8614C565.327 116.637 559.069 141.358 554.688 149.338C552.028 154.188 550.307 155.753 547.334 155.753C541.076 155.753 539.042 147.147 539.98 123.678C540.606 109.44 541.702 100.991 544.361 92.5417L547.96 80.9634L544.518 78.1471C542.327 76.426 537.008 75.0179 530.436 74.392C524.647 73.9226 518.858 73.2968 517.606 73.1403C516.042 72.8274 515.259 70.7934 515.259 66.5689C515.103 57.6505 513.538 55.9294 507.123 56.8682C497.579 58.4328 497.579 58.7457 498.361 85.0315C498.987 100.365 498.518 113.038 497.266 120.549C494.45 137.134 494.606 138.385 497.736 139.011C501.96 139.95 506.028 128.685 509.314 106.467L512.287 86.909H521.518L520.892 107.249C519.953 147.147 528.246 167.487 545.457 167.487C552.654 167.487 558.912 162.637 563.45 153.406L567.361 145.739L569.865 152.467C571.273 156.066 574.402 160.916 576.749 163.106C581.912 167.957 596.464 171.555 602.409 169.208C607.572 167.331 614.3 159.038 618.525 149.807L621.81 142.14L624.783 148.712C632.293 165.453 649.504 166.705 659.674 151.372L663.899 144.957L664.838 153.093C666.246 163.419 667.967 165.453 676.572 166.861C690.185 168.895 690.185 168.739 693.314 145.27C695.974 124.147 700.042 106.467 702.389 106.467C703.015 106.467 703.797 116.95 704.11 129.78C704.579 149.963 705.049 153.562 707.552 156.378C713.654 163.106 728.831 162.011 728.831 154.814C728.831 149.338 735.089 126.651 740.253 113.508L745.26 100.991L746.042 122.895C746.668 142.297 747.294 145.739 750.736 152.467C752.926 156.848 756.525 161.698 758.872 163.419C764.661 167.644 775.77 167.644 781.402 163.419C793.45 154.501 805.967 115.855 796.892 115.855C794.076 115.855 792.198 119.61 790.634 127.589C787.035 147.617 774.987 159.038 769.511 147.46C766.226 140.732 765.756 113.821 768.729 100.991C773.423 80.6505 773.579 82.2151 767.321 77.5213C763.409 74.5485 759.028 72.8274 754.021 72.358L746.668 71.7321L742.6 80.807C740.253 85.9702 735.089 99.5825 730.865 111.161L723.355 132.283L722.416 84.5621L717.879 82.2151C705.362 75.8002 698.79 81.5893 691.436 105.841C688.62 115.229 686.117 123.521 685.804 124.46C685.491 125.242 685.178 112.569 685.178 95.9839C685.021 77.3648 684.396 65.6301 683.457 65.0042C682.518 64.3784 677.981 63.5961 673.443 63.1267L664.994 62.1879L664.368 91.7594C663.742 116.637 663.117 122.895 660.3 131.657C654.198 149.963 646.375 155.596 641.838 144.8C639.178 138.385 638.865 114.759 641.368 105.685C642.933 100.052 642.776 99.2696 639.178 96.2968C635.892 93.6369 635.266 91.29 634.327 80.807C633.076 66.8818 630.729 60.9362 625.253 58.5893C608.824 50.9226 606.008 50.1403 597.872 50.1403C589.423 50.1403 588.64 50.4532 582.538 57.0247ZM613.049 72.0451C618.212 74.8614 621.654 92.5417 617.742 96.4532C616.96 97.2356 615.395 105.372 614.613 114.29C612.423 135.569 608.98 147.617 603.504 153.562C597.715 159.664 591.3 159.351 588.171 152.78C582.851 141.515 583.164 109.753 588.797 90.1947C593.491 74.392 603.348 66.8818 613.049 72.0451ZM125.824 62.3444C124.572 64.5349 121.286 138.698 122.069 147.46C123.164 157.787 126.606 161.229 135.681 161.229C139.592 161.229 143.66 160.603 144.599 159.977C145.694 159.351 147.572 152.936 148.98 145.583C151.953 131.032 156.647 115.698 160.089 109.596C162.123 105.997 162.279 107.406 162.436 124.46C162.436 145.27 164.626 152.467 171.824 156.222C176.987 158.882 186.844 157.63 192.477 153.406C197.171 149.963 197.171 149.963 199.361 153.093C204.368 160.29 225.96 164.515 241.137 161.229C252.558 158.882 259.443 153.406 259.443 146.521C259.443 139.793 257.096 136.821 240.824 123.678C224.552 110.535 221.892 107.093 221.892 99.426C221.892 88.1607 235.817 81.4328 243.953 88.6301C247.708 92.0723 250.994 91.29 255.531 85.9703C258.817 82.0587 259.443 79.7117 259.13 74.5485C258.661 69.2287 257.878 67.8206 253.967 65.943C245.205 61.7185 216.572 69.3852 206.402 78.773C198.266 86.2832 196.388 97.8614 201.552 107.875C203.899 112.725 204.212 114.134 202.49 114.759C201.395 115.229 199.987 118.671 199.361 122.27C196.858 138.072 188.565 148.868 182.933 143.392C180.899 141.202 180.429 136.508 180.116 115.229C179.96 95.6709 179.334 88.4737 177.456 84.875C174.797 79.7117 168.694 77.3648 164.001 79.8682C160.089 81.9022 153.831 92.6982 148.198 106.936L143.817 118.202L143.66 92.8546C143.66 68.29 143.504 67.3512 140.218 65.1607C135.368 62.1879 126.919 60.6233 125.824 62.3444ZM230.497 136.664C234.252 139.95 237.538 143.861 238.007 145.583C240.354 154.344 227.524 156.848 217.511 149.494C214.225 147.147 209.844 144.018 207.341 142.61C204.681 141.045 203.429 139.324 204.055 137.759C204.524 136.508 205.776 131.501 206.715 126.651L208.436 117.732L216.259 124.304C220.484 127.746 226.899 133.378 230.497 136.664Z" fill="#4C4445"/>
</svg>
