<svg width="801" height="112" viewBox="0 0 801 112" fill="none" xmlns="http://www.w3.org/2000/svg">
<path d="M0.00195312 15.5151L45.685 9.23565V53.3183H0.00615909L0.00195312 15.5151ZM45.685 58.9596V102.544L0.00826205 96.2738L0.00721057 58.9617H45.686L45.685 58.9596ZM50.7364 8.54272L111.523 0.186523V53.3183H50.7364V8.54272ZM111.523 58.9596V111.586L50.7364 103.236V58.9596H111.523Z" fill="#4C4445"/>
<path d="M214.719 88.8156H204.159V47.9852C204.159 44.6383 204.369 40.5511 204.786 35.7069H204.609C203.95 38.4639 203.369 40.4428 202.864 41.6499L183.714 88.8156H176.376L157.18 42.0032C156.644 40.6258 156.076 38.527 155.481 35.7122H155.304C155.545 38.2358 155.662 42.3555 155.662 48.0745V88.8156H145.817V25.722H160.806L177.675 67.7416C178.957 70.9676 179.793 73.3755 180.179 74.9569H180.402C181.506 71.6416 182.4 69.1758 183.086 67.5629L200.27 25.722H214.723L214.718 88.8156H214.719ZM234.542 34.3C232.843 34.3 231.384 33.7596 230.181 32.6734C228.971 31.5882 228.368 30.2076 228.368 28.5368C228.368 26.866 228.971 25.4717 230.181 24.355C231.39 23.2425 232.843 22.6832 234.542 22.6832C236.3 22.6832 237.795 23.2425 239.017 24.355C240.239 25.4717 240.853 26.8607 240.853 28.5368C240.853 30.1182 240.239 31.4768 239.017 32.6061C237.79 33.7375 236.3 34.3 234.542 34.3ZM229.308 88.8156V43.7592H239.686V88.8156H229.308ZM286.087 86.7473C282.421 88.8292 278.077 89.8702 273.066 89.8702C266.264 89.8702 260.776 87.7799 256.599 83.6023C252.425 79.4247 250.334 74.0053 250.334 67.3441C250.334 59.9227 252.579 53.9629 257.068 49.4583C261.558 44.9558 267.559 42.7035 275.078 42.7035C279.254 42.7035 282.938 43.4227 286.128 44.8622V54.3646C282.934 52.0197 279.535 50.8442 275.929 50.8442C271.544 50.8442 267.95 52.3057 265.147 55.2226C262.343 58.1405 260.939 61.9605 260.939 66.6828C260.939 71.3472 262.256 75.0284 264.897 77.7266C267.536 80.4257 271.079 81.7748 275.524 81.7748C279.254 81.7748 282.77 80.471 286.082 77.8612L286.087 86.7473ZM322.998 53.4845C321.743 52.515 319.94 52.0334 317.582 52.0334C314.51 52.0334 311.943 53.3951 309.886 56.1247C307.827 58.8502 306.796 62.563 306.796 67.2548V88.8156H296.414V43.7592H306.796V53.0428H306.973C307.987 49.8747 309.545 47.4037 311.648 45.6298C313.751 43.857 316.101 42.9675 318.695 42.9675C320.576 42.9675 322.007 43.2493 322.993 43.8034L322.998 53.4845ZM350.739 89.8702C343.67 89.8702 338.027 87.7662 333.802 83.5571C329.581 79.349 327.469 73.7677 327.469 66.8174C327.469 59.2477 329.667 53.3372 334.07 49.084C338.472 44.8307 344.397 42.7035 351.857 42.7035C359.018 42.7035 364.592 44.7729 368.59 48.9094C372.589 53.047 374.584 58.7787 374.584 66.1107C374.584 73.2998 372.43 79.0546 368.118 83.3783C363.811 87.7084 358.019 89.8702 350.739 89.8702ZM351.23 50.8442C347.174 50.8442 343.965 52.2384 341.612 55.0217C339.254 57.8092 338.077 61.6514 338.077 66.5482C338.077 71.2704 339.272 74.9885 341.657 77.7003C344.042 80.4121 347.237 81.7695 351.234 81.7695C355.325 81.7695 358.463 80.4342 360.654 77.7676C362.843 75.0957 363.943 71.2977 363.943 66.3694C363.943 61.4148 362.848 57.5863 360.654 54.8871C358.459 52.1932 355.319 50.8442 351.23 50.8442ZM382.33 87.4087V77.9505C386.21 80.8547 390.49 82.3058 395.169 82.3058C401.436 82.3058 404.565 80.4878 404.565 76.8507C404.565 75.8234 404.298 74.9527 403.762 74.2325C403.225 73.5132 402.503 72.875 401.589 72.3208C400.675 71.7667 399.604 71.2662 398.368 70.8246C397.128 70.3819 395.75 69.8856 394.229 69.3273C392.488 68.6583 390.792 67.8793 389.15 66.9951C387.641 66.1728 386.392 65.2443 385.392 64.2034C384.407 63.1872 383.639 61.9817 383.134 60.6598C382.626 59.3423 382.375 57.7998 382.375 56.0406C382.375 53.8693 382.898 51.9566 383.942 50.2995C384.988 48.6413 386.387 47.2481 388.146 46.1219C389.908 44.9916 391.903 44.143 394.143 43.571C396.409 42.9953 398.738 42.7071 401.076 42.713C405.31 42.713 409.099 43.3428 412.44 44.6025V53.5339C409.218 51.3625 405.52 50.2764 401.344 50.2764C400.031 50.2764 398.845 50.4109 397.787 50.6696C396.728 50.9335 395.824 51.3005 395.078 51.7695C394.334 52.2384 393.752 52.801 393.334 53.4624C392.919 54.1121 392.701 54.8681 392.707 55.639C392.707 56.6074 392.917 57.4296 393.334 58.1047C393.752 58.7787 394.37 59.3728 395.192 59.887C396.01 60.4012 396.996 60.8701 398.146 61.2939C399.295 61.7187 400.612 62.1834 402.108 62.6797C403.914 63.3978 405.684 64.206 407.409 65.1013C408.977 65.9225 410.312 66.8521 411.416 67.893C412.504 68.9095 413.371 70.138 413.965 71.5028C414.561 72.8655 414.861 74.488 414.861 76.3638C414.861 78.6519 414.325 80.6434 413.248 82.3468C412.176 84.0492 410.74 85.4561 408.955 86.5686C407.164 87.6852 405.097 88.5117 402.757 89.0522C400.413 89.5979 397.946 89.866 395.352 89.866C390.336 89.8702 385.997 89.0522 382.33 87.4087ZM445.061 89.8702C437.992 89.8702 432.344 87.7662 428.122 83.5571C423.902 79.349 421.794 73.7677 421.794 66.8174C421.794 59.2477 423.993 53.3372 428.396 49.084C432.793 44.8307 438.723 42.7035 446.179 42.7035C453.339 42.7035 458.913 44.7729 462.912 48.9094C466.91 53.047 468.909 58.7787 468.909 66.1107C468.909 73.2998 466.755 79.0546 462.444 83.3783C458.133 87.7084 452.335 89.8702 445.061 89.8702ZM445.552 50.8442C441.494 50.8442 438.286 52.2384 435.929 55.0217C433.57 57.8092 432.394 61.6514 432.394 66.5482C432.394 71.2704 433.589 74.9885 435.974 77.7003C438.36 80.4121 441.553 81.7695 445.552 81.7695C449.636 81.7695 452.776 80.4342 454.97 77.7676C457.165 75.0957 458.259 71.2977 458.259 66.3694C458.259 61.4148 457.165 57.5863 454.97 54.8871C452.776 52.1932 449.636 50.8442 445.552 50.8442ZM505.42 30.4305C504.021 29.6398 502.422 29.2424 500.631 29.2424C495.588 29.2424 493.071 32.0435 493.071 37.6459V43.7624H503.72V51.7695H493.116V88.8156H482.735V51.7695H474.906V43.7624H482.735V36.4577C482.735 31.7049 484.316 27.9606 487.478 25.2172C490.64 22.4729 494.594 21.1017 499.337 21.1017C501.903 21.1017 503.93 21.3793 505.42 21.9377V30.4305ZM535.352 88.3329C533.326 89.3298 530.654 89.8303 527.342 89.8303C518.455 89.8303 514.011 85.6348 514.011 77.2492V51.7737H506.361V43.7676H514.011V33.339L524.394 30.4358V43.7676H535.357V51.7737H524.394V74.2987C524.394 76.9663 524.884 78.8737 525.87 80.0178C526.856 81.1618 528.496 81.7338 530.791 81.7338C532.549 81.7338 534.072 81.2375 535.352 80.2365V88.3329ZM623.408 88.8156H611.732L605.961 72.7541H580.727L575.18 88.8156H563.544L587.569 25.722H599.56L623.407 88.8156H623.408ZM603.14 64.2212L594.239 39.0538C593.971 38.2315 593.685 36.914 593.389 35.0949H593.213C592.945 36.7668 592.645 38.0885 592.317 39.0538L583.503 64.2212H603.14ZM664.93 48.0293L640.187 80.8495H664.839V88.8156H625.643V84.9871L650.923 51.7243H628.06V43.7582H664.93V48.0293ZM713.654 88.8156H703.276V81.6854H703.1C700.087 87.1406 695.403 89.8702 689.052 89.8702C678.224 89.8702 672.808 83.4772 672.808 70.6858V43.7582H683.19V69.6311C683.19 77.7276 686.365 81.7748 692.723 81.7748C695.793 81.7748 698.32 80.6623 700.305 78.4332C702.29 76.204 703.281 73.2861 703.281 69.6764V43.7582H713.663L713.654 88.8156ZM753.79 53.4845C752.537 52.515 750.732 52.0334 748.375 52.0334C745.304 52.0334 742.736 53.3951 740.678 56.1247C738.62 58.8502 737.589 62.563 737.589 67.2548V88.8156H727.211V43.7592H737.589V53.0428H737.765C738.779 49.8747 740.337 47.4037 742.44 45.6298C744.544 43.857 746.893 42.9675 749.487 42.9675C751.364 42.9675 752.8 43.2493 753.781 43.8034L753.791 53.4845H753.79ZM800.01 69.0591H768.778C768.896 73.223 770.2 76.4353 772.694 78.696C775.184 80.9525 778.605 82.0829 782.963 82.0829C787.855 82.0829 792.344 80.6444 796.429 77.7718V85.9965C792.255 88.579 786.734 89.8702 779.873 89.8702C773.13 89.8702 767.846 87.824 764.012 83.7316C760.177 79.6392 758.264 73.8844 758.264 66.4641C758.264 59.4538 760.372 53.7389 764.598 49.3248C768.819 44.9106 774.062 42.7035 780.328 42.7035C786.592 42.7035 791.435 44.6835 794.867 48.6413C798.296 52.6002 800.014 58.0995 800.014 65.1413L800.009 69.0591H800.01ZM789.988 61.8438C789.942 58.1762 789.079 55.3246 787.348 53.2878C785.617 51.2511 783.232 50.2322 780.188 50.2322C777.207 50.2322 774.676 51.3047 772.604 53.4445C770.533 55.5843 769.256 58.3865 768.779 61.848H789.988V61.8438Z" fill="#4C4445"/>
</svg>
